<svg xmlns="http://www.w3.org/2000/svg" height="1200" width="1200" version="1" fill="#fad232"><path d="M594.588.838c-4.24 1.53-7.997 4.684-9.828 8.22-.674 1.339-31.507 99.696-68.314 218.414-36.903 118.814-67.543 216.98-68.025 218.127l-.963 2.199H230.183c-214.576 0-217.37 0-221.128 1.912-4.529 2.294-7.323 6.021-8.576 11.374-1.445 6.309.386 11.949 5.396 16.441 1.445 1.434 80.069 61.366 174.687 133.247 94.618 71.88 172.663 131.43 173.627 132.29 1.445 1.435 1.349 2.104-1.06 10.133-1.542 4.684-31.893 102.564-67.543 217.458-44.322 142.9-64.845 210.098-64.749 212.965 0 5.831 3.95 11.949 9.154 14.434 4.914 2.39 11.176 2.58 15.127.573 2.12-1.147 212.65-160.584 335.692-254.354l19.174-14.624 9.731 7.36c5.396 4.11 81.9 62.322 170.159 129.328 88.258 67.005 163.799 124.357 167.942 127.511 6.84 5.066 8.093 5.64 13.007 5.927 6.552.477 10.792-1.434 14.935-6.596 5.974-7.36 10.695 9.654-63.785-230.362C874.78 843.045 844.43 744.783 844.43 744.4c0-.382 10.984-8.985 24.377-19.117 13.296-10.132 92.402-70.16 175.554-133.438 118.899-90.424 151.755-115.85 153.393-118.813 3.758-6.405 2.698-14.434-2.41-19.882-5.395-5.736 10.407-5.353-225.464-5.353-172.278 0-216.985-.287-217.66-1.243-.481-.573-16.187-50.182-34.783-110.115C622.53 30.756 615.882 9.536 613.666 6.573c-4.143-5.448-12.815-8.03-19.078-5.735zm60.991 253.876c30.255 97.498 57.811 186.297 61.28 197.194 6.745 21.794 6.937 22.176 10.213 25.235 5.782 5.448-7.9 5.066 206.484 5.066h197.233l-2.794 2.198c-2.698 2.294-259.285 197.48-294.646 224.15-25.726 19.499-26.497 20.264-26.69 28.197 0 2.868 18.018 62.513 60.799 200.54 33.53 108.012 61.087 196.906 61.376 197.671.29.956.097 1.052-.77.382-.675-.573-66.098-50.182-145.3-110.401-79.202-60.124-150.888-114.608-159.27-121.012-8.383-6.309-16.766-12.044-18.596-12.617-6.36-2.103-10.985-.574-21.005 6.977-5.01 3.824-58.679 44.543-119.284 90.616C282.503 1127.414 272 1135.252 271.615 1134.87c-.193-.192 27.171-88.895 60.798-197.194 33.53-108.3 61.088-198.341 61.088-199.966 0-5.83-2.698-10.514-9.058-15.39-3.18-2.58-75.443-57.542-160.426-122.158L69.467 482.687l198.486-.478 198.39-.478 4.047-2.581c2.216-1.53 4.625-3.823 5.395-5.353.771-1.434 28.135-88.608 60.799-193.753 62.822-202.355 63.11-203.406 63.592-202.928.193.19 25.052 80.1 55.403 177.598z"/><path d="M599.31 135.327c-.29.765-25.245 81.153-55.5 178.65-30.254 97.498-55.499 178.937-56.173 180.945l-1.156 3.632-182.974.382c-100.591.191-182.973.478-183.165.67-.29.286 73.71 56.586 230.282 175.495 35.457 26.955 64.652 49.61 64.845 50.183.193.765-100.014 325.183-112.058 363.035-.674 1.912-.385 1.816 2.987-.669 4.529-3.25 224.79-170.525 265.258-201.4l28.424-21.602 3.372 2.677c6.841 5.257 84.598 64.329 187.31 142.423 57.714 43.778 105.12 79.431 105.312 79.145.29-.287-24.473-81.057-55.017-179.606-30.64-98.454-55.98-180.18-56.462-181.71-.675-2.484-.097-3.058 15.32-14.815 8.864-6.69 75.444-57.352 147.997-112.505l132.003-100.365-93.462-.765c-51.356-.382-132.774-.573-181.046-.477-48.176.19-88.644.19-89.8 0-1.831-.287-2.698-1.912-5.493-10.993-1.83-5.926-27.267-87.748-56.462-181.804-29.291-94.152-53.38-171.29-53.572-171.482-.193-.19-.578.192-.77.956z"/></svg>