<svg xmlns="http://www.w3.org/2000/svg" viewBox="0 0 511.682 67.68"><g style="line-height:125%;-inkscape-font-specification:Ubuntu"><path d="M109.446 50.736a156.1 156.1 0 0 1-1.535-4.248c-.48-1.392-.977-2.808-1.49-4.248H91.35l-3.024 8.496h-4.848c1.28-3.52 2.48-6.776 3.6-9.768a431.18 431.18 0 0 1 3.288-8.52 299.654 299.654 0 0 1 3.192-7.704 199.12 199.12 0 0 1 3.311-7.272h4.273c1.152 2.4 2.255 4.823 3.312 7.272a301.62 301.62 0 0 1 3.192 7.704 425.513 425.513 0 0 1 3.288 8.52c1.12 2.992 2.32 6.248 3.6 9.768zM105.078 38.4a534.865 534.865 0 0 0-3.048-8.088 143.612 143.612 0 0 0-3.144-7.512c-1.12 2.4-2.184 4.904-3.192 7.512a320.859 320.859 0 0 0-3 8.088zm52.3-4.32c0 2.88-.448 5.384-1.344 7.512-.896 2.128-2.16 3.888-3.792 5.28-1.632 1.392-3.584 2.432-5.856 3.12-2.272.688-4.768 1.032-7.489 1.032-1.344 0-2.823-.056-4.44-.168-1.615-.112-3.079-.328-4.391-.648V17.951c1.312-.32 2.776-.535 4.392-.647a64.476 64.476 0 0 1 4.44-.169c2.72 0 5.216.344 7.488 1.032 2.272.688 4.224 1.728 5.856 3.12 1.632 1.392 2.896 3.152 3.792 5.28.896 2.128 1.344 4.633 1.344 7.514zm-18.096 12.863c4.415 0 7.711-1.128 9.887-3.383 2.177-2.256 3.265-5.416 3.265-9.48s-1.088-7.224-3.265-9.48c-2.176-2.256-5.472-3.384-9.887-3.384-1.312 0-2.328.016-3.049.048a26.44 26.44 0 0 0-1.51.096V46.8c.286.032.79.064 1.51.096s1.737.048 3.05.048zm33.931-21.695c.383 0 .823.024 1.32.071.495.048.984.112 1.464.192s.92.16 1.32.24c.4.08.695.153.888.217l-.77 3.888c-.35-.128-.935-.28-1.75-.456-.816-.177-1.865-.265-3.145-.265-.832 0-1.656.088-2.472.265a69.4 69.4 0 0 0-1.607.36v20.976h-4.465V26.833c1.056-.385 2.369-.746 3.937-1.082 1.567-.335 3.327-.503 5.28-.503zm13.81 25.488h-4.465v-24.96h4.465zm-2.256-29.473c-.8 0-1.48-.264-2.04-.792-.56-.527-.84-1.24-.84-2.135 0-.896.28-1.608.84-2.136.56-.528 1.24-.792 2.04-.792s1.48.264 2.04.792.84 1.24.84 2.136c0 .896-.28 1.608-.84 2.135-.56.528-1.24.792-2.04.792zm27.308 17.041c0-2.912-.72-5.152-2.16-6.72-1.44-1.568-3.36-2.352-5.76-2.352-1.344 0-2.392.048-3.144.144-.752.096-1.352.208-1.8.336v15.745c.544.447 1.327.878 2.351 1.294 1.024.416 2.144.624 3.36.624 1.28 0 2.376-.231 3.289-.695a6.03 6.03 0 0 0 2.231-1.92c.576-.816.992-1.776 1.248-2.88.257-1.104.385-2.296.385-3.576zm4.655 0c0 1.887-.248 3.631-.744 5.231s-1.224 2.976-2.184 4.128a9.93 9.93 0 0 1-3.528 2.688c-1.392.64-2.984.96-4.776.96-1.44 0-2.711-.191-3.815-.575-1.104-.384-1.928-.752-2.472-1.105v9.985h-4.465V26.544a87.213 87.213 0 0 1 3.96-.84c1.585-.304 3.417-.456 5.497-.456 1.92 0 3.648.304 5.184.911 1.536.608 2.848 1.472 3.936 2.592s1.928 2.489 2.52 4.105c.591 1.616.887 3.432.887 5.448zm39.423-.049c0 1.985-.288 3.777-.864 5.377-.576 1.6-1.384 2.976-2.424 4.128a10.666 10.666 0 0 1-3.72 2.664c-1.44.624-3.008.936-4.703.936-1.696 0-3.264-.312-4.704-.936a10.666 10.666 0 0 1-3.72-2.664c-1.04-1.152-1.848-2.528-2.425-4.128-.576-1.6-.864-3.392-.864-5.377 0-1.952.288-3.736.864-5.351.577-1.616 1.385-3 2.425-4.152a10.666 10.666 0 0 1 3.72-2.664c1.44-.624 3.008-.936 4.704-.936 1.695 0 3.263.312 4.703.936 1.44.624 2.68 1.512 3.72 2.664 1.04 1.152 1.848 2.536 2.424 4.152.576 1.615.864 3.4.864 5.351zm-4.656 0c0-2.815-.632-5.047-1.896-6.695-1.263-1.648-2.983-2.472-5.159-2.472-2.177 0-3.897.824-5.16 2.472-1.264 1.648-1.896 3.88-1.896 6.695 0 2.817.632 5.049 1.895 6.697 1.264 1.648 2.984 2.472 5.161 2.472 2.176 0 3.896-.824 5.16-2.472 1.263-1.648 1.895-3.88 1.895-6.697zm20.68-24.767c1.313 0 2.441.096 3.385.288.944.192 1.608.368 1.991.528l-.816 3.84c-.383-.192-.927-.376-1.631-.552-.704-.177-1.568-.265-2.592-.265-2.08 0-3.536.568-4.368 1.704-.832 1.137-1.248 2.665-1.248 4.585v2.16h9.6v3.744h-9.6v21.216h-4.465V23.52c0-3.2.784-5.672 2.353-7.416 1.568-1.744 4.032-2.616 7.391-2.616zm36.154 26.544c0 1.6-.168 3.088-.504 4.464-.336 1.376-.928 2.584-1.776 3.624s-1.984 1.856-3.408 2.448c-1.424.592-3.208.889-5.352.889a15.774 15.774 0 0 1-5.472-.937 13.637 13.637 0 0 1-1.92-.864c-.544-.305-.976-.6-1.296-.887l1.823-3.698c.672.48 1.544.985 2.617 1.513 1.072.528 2.408.791 4.007.791 2.305 0 3.985-.584 5.041-1.751 1.056-1.168 1.583-3.176 1.583-6.024V17.472h4.657zm16.176 7.488c1.056 0 1.992-.024 2.808-.072.816-.048 1.496-.136 2.04-.264v-7.44c-.32-.16-.84-.296-1.56-.408-.72-.112-1.592-.168-2.617-.168-.671 0-1.383.048-2.135.145a6.59 6.59 0 0 0-2.064.6 4.418 4.418 0 0 0-1.56 1.247c-.416.528-.624 1.224-.624 2.088 0 1.6.512 2.713 1.535 3.337 1.024.624 2.417.936 4.177.936zm-.385-22.368c1.792 0 3.304.232 4.537.696 1.232.464 2.224 1.12 2.976 1.968.752.848 1.288 1.856 1.608 3.024.32 1.168.48 2.456.48 3.863v15.6c-.384.066-.92.153-1.608.265-.688.112-1.464.216-2.328.312-.864.096-1.8.184-2.808.264-1.008.08-2.008.12-3 .12-1.409 0-2.704-.145-3.888-.432-1.184-.288-2.208-.744-3.072-1.368-.864-.624-1.536-1.448-2.016-2.472s-.72-2.256-.72-3.696c0-1.376.28-2.56.84-3.552a6.691 6.691 0 0 1 2.28-2.4c.96-.608 2.08-1.056 3.36-1.344a18.312 18.312 0 0 1 4.032-.433 14 14 0 0 1 1.392.072c.48.048.936.113 1.368.192.432.08.808.152 1.128.216.32.065.544.113.672.144v-1.248c0-.736-.08-1.463-.24-2.184a5.005 5.005 0 0 0-.864-1.92c-.416-.56-.984-1.008-1.704-1.344-.72-.336-1.656-.504-2.809-.504-1.471 0-2.76.104-3.863.312-1.104.208-1.928.424-2.472.648l-.529-3.696c.576-.256 1.537-.504 2.88-.744 1.345-.24 2.8-.36 4.368-.36zm36.456.624a125.936 125.936 0 0 1-4.392 13.44c-1.68 4.288-3.304 8.128-4.872 11.52h-4.031c-1.568-3.392-3.193-7.232-4.873-11.52a125.817 125.817 0 0 1-4.392-13.44h4.8c.384 1.568.84 3.24 1.368 5.016a145.323 145.323 0 0 0 1.68 5.28 183.427 183.427 0 0 0 1.8 5.064 104.07 104.07 0 0 0 1.728 4.367c.544-1.279 1.12-2.735 1.728-4.367a176.73 176.73 0 0 0 1.8-5.064 144.474 144.474 0 0 0 1.68-5.28c.528-1.776.984-3.448 1.369-5.016zm13.054 21.744c1.056 0 1.992-.024 2.808-.072.816-.048 1.496-.136 2.04-.264v-7.44c-.32-.16-.84-.296-1.56-.408-.72-.112-1.592-.168-2.617-.168-.671 0-1.383.048-2.135.145a6.59 6.59 0 0 0-2.064.6 4.418 4.418 0 0 0-1.56 1.247c-.416.528-.624 1.224-.624 2.088 0 1.6.512 2.713 1.535 3.337 1.024.624 2.417.936 4.177.936zm-.385-22.368c1.792 0 3.304.232 4.537.696 1.232.464 2.224 1.12 2.976 1.968.752.848 1.288 1.856 1.608 3.024.32 1.168.48 2.456.48 3.863v15.6c-.384.066-.92.153-1.608.265-.688.112-1.464.216-2.328.312-.864.096-1.8.184-2.808.264-1.008.08-2.008.12-3 .12-1.409 0-2.704-.145-3.888-.432-1.184-.288-2.208-.744-3.072-1.368-.864-.624-1.536-1.448-2.016-2.472s-.72-2.256-.72-3.696c0-1.376.28-2.56.84-3.552a6.691 6.691 0 0 1 2.28-2.4c.96-.608 2.08-1.056 3.36-1.344a18.312 18.312 0 0 1 4.032-.433 14 14 0 0 1 1.392.072c.48.048.936.113 1.368.192.432.08.808.152 1.128.216.32.065.544.113.672.144v-1.248c0-.736-.08-1.463-.24-2.184a5.005 5.005 0 0 0-.864-1.92c-.416-.56-.984-1.008-1.704-1.344-.72-.336-1.656-.504-2.809-.504-1.471 0-2.76.104-3.863.312-1.104.208-1.928.424-2.472.648l-.529-3.696c.576-.256 1.537-.504 2.88-.744 1.345-.24 2.8-.36 4.368-.36zm24.985 22.272c4.863 0 7.295-1.664 7.295-4.992 0-1.024-.216-1.896-.648-2.616a6.257 6.257 0 0 0-1.752-1.872 12.209 12.209 0 0 0-2.52-1.368 84.81 84.81 0 0 0-3-1.152 30.66 30.66 0 0 1-3.456-1.416c-1.088-.528-2.032-1.152-2.832-1.872a7.95 7.95 0 0 1-1.895-2.568c-.464-.992-.696-2.192-.696-3.6 0-2.912.992-5.184 2.976-6.816 1.983-1.633 4.72-2.449 8.208-2.449 2.015 0 3.847.216 5.495.648 1.648.432 2.856.905 3.623 1.418l-1.486 3.79c-.672-.415-1.672-.823-3-1.223-1.329-.4-2.872-.6-4.632-.6-.897 0-1.729.096-2.497.288-.768.192-1.44.48-2.016.864a4.289 4.289 0 0 0-1.368 1.464c-.336.592-.504 1.288-.504 2.087 0 .897.176 1.65.528 2.257.352.608.848 1.144 1.488 1.608.64.464 1.384.888 2.232 1.272.848.384 1.784.768 2.808 1.152a64.75 64.75 0 0 1 3.96 1.728c1.2.575 2.24 1.263 3.12 2.064a8.27 8.27 0 0 1 2.04 2.856c.48 1.104.72 2.44.72 4.007 0 2.912-1.063 5.153-3.191 6.72-2.128 1.57-5.128 2.354-9 2.354-1.313 0-2.521-.088-3.625-.265a27.095 27.095 0 0 1-2.952-.624 16.981 16.981 0 0 1-2.231-.768 19.908 19.908 0 0 1-1.465-.696l1.393-3.84c.735.415 1.855.88 3.359 1.392 1.504.512 3.344.768 5.52.768zm28.331 3.888c-2.015 0-3.783-.32-5.303-.96-1.52-.64-2.8-1.537-3.84-2.689-1.04-1.152-1.817-2.52-2.329-4.103-.512-1.584-.768-3.336-.768-5.256 0-1.92.28-3.68.84-5.28.56-1.6 1.352-2.984 2.376-4.152 1.024-1.168 2.28-2.08 3.768-2.736 1.489-.656 3.144-.984 4.968-.984 1.12 0 2.24.096 3.36.288 1.12.192 2.192.496 3.217.912l-1.01 3.793c-.671-.32-1.447-.577-2.327-.769a13.16 13.16 0 0 0-2.808-.288c-2.496 0-4.408.784-5.736 2.352-1.328 1.568-1.991 3.856-1.991 6.864 0 1.343.152 2.575.455 3.696.304 1.12.784 2.08 1.44 2.88.656.8 1.496 1.416 2.52 1.848 1.024.432 2.272.647 3.744.647 1.184 0 2.257-.112 3.217-.336.96-.224 1.712-.464 2.255-.72l.625 3.744c-.256.16-.624.313-1.104.457-.48.144-1.024.272-1.633.384-.608.111-1.256.207-1.944.287-.688.08-1.352.12-1.992.12zm20.681-26.064c.384 0 .824.024 1.32.071.496.048.984.112 1.464.192s.92.16 1.32.24c.4.08.696.153.888.217l-.769 3.888c-.352-.128-.935-.28-1.751-.456-.816-.177-1.864-.265-3.145-.265-.832 0-1.656.088-2.471.265a69.4 69.4 0 0 0-1.608.36v20.976h-4.465V26.833c1.057-.385 2.369-.746 3.937-1.082 1.568-.335 3.328-.503 5.28-.503zm13.81 25.488h-4.464v-24.96h4.464zM458.8 21.263c-.8 0-1.48-.264-2.04-.792-.56-.527-.84-1.24-.84-2.135 0-.896.28-1.608.84-2.136.56-.528 1.24-.792 2.04-.792s1.48.264 2.04.792.84 1.24.84 2.136c0 .896-.28 1.608-.84 2.135-.56.528-1.24.792-2.04.792zm27.306 17.041c0-2.912-.72-5.152-2.16-6.72-1.44-1.568-3.36-2.352-5.76-2.352-1.344 0-2.392.048-3.144.144-.752.096-1.352.208-1.8.336v15.745c.544.447 1.328.878 2.352 1.294 1.024.416 2.143.624 3.36.624 1.28 0 2.376-.231 3.288-.695a6.03 6.03 0 0 0 2.232-1.92c.575-.816.991-1.776 1.248-2.88.256-1.104.384-2.296.384-3.576zm4.655 0c0 1.887-.248 3.631-.744 5.231s-1.224 2.976-2.184 4.128a9.93 9.93 0 0 1-3.528 2.688c-1.392.64-2.984.96-4.776.96-1.44 0-2.711-.191-3.815-.575-1.104-.384-1.928-.752-2.472-1.105v9.985h-4.465V26.544a87.213 87.213 0 0 1 3.961-.84c1.584-.304 3.416-.456 5.496-.456 1.92 0 3.648.304 5.184.911 1.536.608 2.848 1.472 3.936 2.592s1.928 2.489 2.52 4.105c.591 1.616.887 3.432.887 5.448zm10.505-12.528h9.457v3.744h-9.457v11.52c0 1.248.096 2.28.288 3.096.192.816.48 1.456.864 1.92a3.11 3.11 0 0 0 1.44.983c.577.192 1.249.288 2.016.288 1.344 0 2.424-.152 3.24-.455a90.8 90.8 0 0 0 1.704-.648l.864 3.696c-.448.224-1.232.503-2.352.84-1.12.335-2.4.503-3.84.503-1.696 0-3.096-.216-4.2-.647-1.104-.432-1.992-1.08-2.664-1.944-.672-.864-1.144-1.928-1.416-3.192-.272-1.264-.408-2.728-.408-4.392V18.815l4.464-.767z" style="-inkscape-font-specification:Ubuntu" font-size="48" font-weight="400" letter-spacing="0" word-spacing="0" font-family="Ubuntu"/></g><path d="M67.68 33.84c0 18.69-15.15 33.84-33.84 33.84C15.15 67.68 0 52.53 0 33.84 0 15.15 15.15 0 33.84 0c18.69 0 33.84 15.15 33.84 33.84z" fill="#272905"/><path d="M33.948 14.122c-1.393 11.508-21.744 31.81 0 35.355 19.085-3.995 1.134-23.79 0-35.355z" fill="#fefdf9"/></svg>