<svg xmlns="http://www.w3.org/2000/svg" viewBox="0 0 167.3 50"><path d="M87.9 27h4.3v22.6l-4.3-.1V27zm-6.8 22.5l4.3.1V27h-4.3v22.5zM62.2 43c0 2.1-.7 3.6-2 4.7s-3.3 1.8-5.7 1.8H44.2V27h10.1c2.4 0 4.3.6 5.5 1.6 1.2 1.1 1.8 2.5 1.8 4.2 0 2.3-1.4 3.8-3.6 4.5v.1c2.5.7 4.2 2.8 4.2 5.6zm-13.4-6.9h5c2 0 3.4-.9 3.4-2.7 0-1.7-1.2-2.7-3.3-2.7h-5.1v5.4zm8.9 6.5c0-2.1-1.6-3.3-3.7-3.3h-5.2v6.4h5.3c2.2 0 3.6-1.2 3.6-3.1zm16.7 0c0 2.2-1.3 3.7-3.3 3.7-1.8 0-2.7-1-2.7-2.9V33.3h-4.3v10.8c0 3.5 2 5.8 5.6 5.8 2.3 0 3.6-.8 4.7-2.3h.1v1.9h4.2V33.3h-4.3v9.3zm62.8-9.8c-2.2 0-3.7 1-4.9 2.7v-2.2h-4.2v16.2h4.3v-9.2c0-2.2 1.4-3.7 3.3-3.7 1.8 0 2.8 1.3 2.8 3v9.9h4.3V38.9c0-3.6-2.2-6.1-5.6-6.1zm-15.8 16.7h4.3V33.3h-4.3v16.2zm-4.6-4.8v-8.6h2.8v-2.8h-2.8v-5h-4.2v5h-2.3v2.9h2.3v9.5c0 3.1 2.3 3.9 4.4 3.9 1.7 0 2.7-.1 2.7-.1v-3.2h-1.3c-.9 0-1.6-.4-1.6-1.6zm4.6-13.5h4.3v-3.9h-4.3v3.9zm-11.5 11.5H98.2c.3 2.5 1.7 4 4.2 4 1.7 0 2.7-.8 3.1-2h4.2c-.6 2.9-3.2 5.3-7.4 5.3-5.3 0-8.4-3.8-8.4-8.6s3.3-8.5 8-8.5c5.2 0 8 4 8 9.8zm-4.5-3c-.1-2.1-1.5-3.5-3.5-3.5-2.2 0-3.3 1.4-3.7 3.5h7.2zm-86.3-5.3H33V29H19.1v5.4zM9.2 9.1H33V0H9.2v9.1zm9.9 14.5H33v-5.4H19.1v5.4zM0 50h9.2V9.1H0V50z"/><path fill="currentColor" d="M44.2 0h16.2v3.9H48.8v5.3h9.9v3.9h-9.9v9.5h-4.6V0zM79 22.6h4.3V0H79v22.6zm6.8 0h4.4V0h-4.4v22.6zm-13.9-6.9c0 2.2-1.3 3.7-3.3 3.7-1.8 0-2.7-1-2.7-2.9V6.4h-4.3v10.8c0 3.5 2 5.8 5.6 5.8 2.3 0 3.6-.8 4.7-2.3l.1 1.9h4.2V6.4h-4.3v9.3zm88.6-3.1l6-6.2h-5.2l-5.8 6.1V0h-4.3v22.6h4.3v-5.5l1.9-1.9 4.6 7.4h5.2l-6.7-10zm-27.3 9.9v.2H129c-.2-.4-.4-1.2-.5-1.9-.9 1.2-2.1 2.2-4.9 2.2-3.3 0-5.7-1.7-5.7-5 0-3.6 2.9-4.7 6.5-5.2 2.7-.4 3.9-.6 3.9-1.8s-.9-1.9-2.7-1.9c-2 0-3 .7-3.1 2.3h-3.8c.1-2.8 2.3-5.3 7-5.3 4.9 0 6.9 2.2 6.9 6v8.2c0 1.2.2 2 .6 2.2zm-4.7-8c-.8.4-1.9.7-3 .9-2.3.5-3.4 1-3.4 2.5s1 2.1 2.5 2.1c2.6-.1 3.9-1.6 3.9-3.1v-2.4zm13.9 5c-2.7 0-3.9-2-3.9-5.1 0-3.1 1.3-5.1 3.9-5.1 1.6 0 2.7 1.1 3 2.5h4.2c-.6-3.5-3.2-5.9-7.4-5.9-4.9 0-8.1 3.8-8.1 8.6s3.2 8.5 8.5 8.5c4.3 0 7-2.8 7.3-6.2h-4.2c-.3 1.8-1.6 2.7-3.3 2.7zm-28.8-1.8V8.5h2.8V5.7h-2.8V1.3h-4.2v4.4h-2.3v2.9h2.3v10.1c0 3.1 2.3 3.9 4.4 3.9 1.7 0 2.7-.1 2.7-.1v-3.2h-1.3c-.9 0-1.6-.4-1.6-1.6zm-12.8-5c-2.3-.5-4.5-.6-4.5-2 0-1.2 1.1-1.8 2.8-1.8 1.8 0 2.9.7 3.1 2.4h3.9c-.3-3.3-2.7-5.4-7-5.4-3.7 0-6.6 1.7-6.6 5.2s2.9 4.3 5.8 4.9c2.2.4 4.3.6 4.3 2.1 0 1.2-1.1 1.9-3 1.9-2 0-3.3-.8-3.6-2.7h-4c.3 3.5 2.9 5.7 7.6 5.7 4.1 0 6.9-1.9 6.9-5.2 0-3.8-3-4.5-5.7-5.1z"/></svg>