<svg id="Layer_1" xmlns="http://www.w3.org/2000/svg" viewBox="0 0 371 66"><style>.st1{fill:none;stroke:#3dc895;stroke-width:1.5;stroke-miterlimit:10}</style><path d="M83.3 28.1v4.1h-4.5v13.7h-4.6V32.2h-3.9v-4.1h3.9v-5.9h4.6v5.9h4.5zm16.1 11.6l3.5 1.3c-1.3 3.4-4.2 5.4-8.3 5.4-2.6.1-5-.9-6.9-2.6-1.8-1.8-2.8-4.3-2.7-6.8-.1-2.5.8-4.9 2.5-6.7 3.7-3.4 9.3-3.5 13.1-.3 1.7 1.6 2.5 3.8 2.4 6.1 0 .7-.1 1.3-.3 2H89.6c.4 2.9 2.3 4.6 5.1 4.6 2.1 0 3.9-1.1 4.7-3zM89.7 35h8.7c-.1-2.2-2-3.8-4.2-3.7h-.1c-2.5-.1-3.9 1.2-4.4 3.7zm34.1 5.8c-1.3 3.5-4.6 5.5-8.6 5.5-2.6.1-5.1-.9-6.9-2.6-3.6-3.7-3.6-9.7 0-13.4 1.8-1.8 4.3-2.7 6.8-2.7 4 0 7.2 2 8.4 5.5l-3.9 1.5c-.7-1.9-2.5-3.1-4.4-3-1.4 0-2.7.5-3.7 1.6-1 1-1.5 2.4-1.5 3.8-.1 2.8 2 5.2 4.8 5.4h.4c2 0 3.8-1.2 4.6-3l4 1.4zm21-4.8v9.9H140v-9.1c0-3.3-1.5-5-4-5s-4.2 2.1-4.2 5.2v8.9H127V19.2h4.7v11.2c1.2-1.9 3.4-2.9 5.6-2.8 4.5 0 7.5 3.2 7.5 8.4zm29.3-5.8c3.4 3.9 3.4 9.6 0 13.5-1.7 1.8-4.1 2.7-6.5 2.6-2.6.1-5-1-6.6-3V54h-4.7V28.1h4.3v3.1c1.5-2.4 4.2-3.8 7-3.6 2.4-.1 4.8.9 6.5 2.6zm-2.2 6.8c0-1.5-.5-2.9-1.6-3.9-2.2-2.1-5.7-2.1-7.8 0-1 1-1.6 2.5-1.5 3.9-.1 1.5.5 2.9 1.6 4 2.2 2.1 5.7 2.1 7.8-.1 1-1.1 1.6-2.5 1.5-3.9zm20.6-9l-1 4.7c-.5-.2-1-.3-1.6-.3-2.9 0-4.9 2.4-4.9 6.6v6.9h-4.8V28.1h4.4v4c1.1-2.9 3.3-4.5 6-4.5.7 0 1.3.1 1.9.4zm9.8 18.4c-2.6.1-5.1-.9-6.9-2.6-3.7-3.7-3.7-9.7 0-13.5 4-3.5 9.9-3.5 13.8 0 3.7 3.7 3.7 9.7 0 13.5-1.9 1.7-4.4 2.6-6.9 2.6zm0-4c1.4 0 2.7-.5 3.7-1.5 1.9-2.2 1.9-5.5 0-7.7-2-2.1-5.4-2.1-7.4 0a5.78 5.78 0 0 0 0 7.6c.9 1 2.3 1.6 3.7 1.6zM230 19.2h4.7v26.6h-4.3v-3.1c-1.5 2.4-4.2 3.8-7 3.6-2.5.1-4.9-.8-6.6-2.6-3.3-3.9-3.3-9.6 0-13.5 1.7-1.8 4.1-2.7 6.6-2.6 2.6-.1 5 1 6.6 3V19.2zM228.4 41c1-1.1 1.6-2.5 1.5-4 0-1.5-.5-2.9-1.5-3.9-1-1.1-2.5-1.7-3.9-1.6-1.5-.1-3 .5-4 1.6S219 35.6 219 37c-.1 2.9 2.1 5.4 5 5.5h.5c1.4.1 2.9-.5 3.9-1.5zm10.8-12.9h4.7v9.5c0 2.8 1.4 4.6 3.9 4.6s3.9-1.7 3.9-4.6v-9.5h4.7v9.5c.3 4.5-3.1 8.4-7.5 8.7h-1.1c-2.3.1-4.6-.7-6.2-2.3-1.6-1.7-2.5-4-2.4-6.4v-9.5zm38.7 12.7c-1.3 3.5-4.6 5.5-8.6 5.5-2.6.1-5.1-.9-6.9-2.6-3.7-3.7-3.7-9.7 0-13.4 1.8-1.8 4.2-2.7 6.8-2.7 4 0 7.2 2 8.4 5.5l-3.9 1.5c-.7-1.9-2.5-3.1-4.5-3-1.4 0-2.7.5-3.7 1.6-1 1-1.5 2.4-1.4 3.8-.2 2.8 2 5.2 4.8 5.4h.4c2 0 3.8-1.2 4.6-3l4 1.4zm14.3-12.7v4.1h-4.5v13.7h-4.6V32.2h-3.9v-4.1h3.9v-5.9h4.6v5.9h4.5zm5.3-8.7c1.6 0 3 1.3 3 2.9s-1.3 3-2.9 3c-1.6 0-3-1.3-3-2.9-.1-1.6 1.1-2.9 2.7-3h.2zm-2.4 26.5V28.1h4.8v17.8h-4.8zm23.3-17.8h4.8L315 45.9h-4.1l-8.2-17.8h5l5.4 12.3 5.3-12.3zm9.8-8.7c1.6 0 3 1.3 3 2.9s-1.3 3-2.9 3c-1.6 0-3-1.3-3-2.9-.1-1.6 1.1-2.9 2.7-3h.2zm-2.5 26.5V28.1h4.8v17.8h-4.8zm19.9-17.8v4.1h-4.5v13.7h-4.6V32.2h-3.9v-4.1h3.9v-5.9h4.6v5.9h4.5zm18.1 0h5L356.6 54h-5l4-8.7-8.1-17.2h5.2l5.4 11.9 5.6-11.9z" fill="#000551"/><path class="st1" d="M6 22.4h11.1c2 0 3.6 1.6 3.6 3.6v33.9"/><ellipse transform="rotate(-80.781 30.08 34.77)" class="st1" cx="30.1" cy="34.8" rx="27.1" ry="27.1"/><path class="st1" d="M34.4 22.1h-6.6c-2 0-3.6 1.6-3.6 3.6v35.5"/><circle class="st1" cx="35.9" cy="21.5" r="1.9"/><path class="st1" d="M38.2 43.9h6.6c2 0 3.6-1.6 3.6-3.6V14.6"/><circle class="st1" cx="36.6" cy="43.9" r="1.9"/><path class="st1" d="M41.7 30.2h-6.6c-2 0-3.6 1.6-3.6 3.6v27.6"/><circle class="st1" cx="43.2" cy="29.7" r="1.9"/></svg>