<?xml version="1.0" encoding="UTF-8" standalone="no"?>
<!-- Created with Inkscape (http://www.inkscape.org/) -->

<svg
   xmlns:dc="http://purl.org/dc/elements/1.1/"
   xmlns:cc="http://creativecommons.org/ns#"
   xmlns:rdf="http://www.w3.org/1999/02/22-rdf-syntax-ns#"
   xmlns:svg="http://www.w3.org/2000/svg"
   xmlns="http://www.w3.org/2000/svg"
   xmlns:sodipodi="http://sodipodi.sourceforge.net/DTD/sodipodi-0.dtd"
   xmlns:inkscape="http://www.inkscape.org/namespaces/inkscape"
   viewBox="0 0 511.68231 67.680229"
   id="svg2"
   version="1.1"
   inkscape:version="0.48.5 r10040"
   sodipodi:docname="C:\Users\jclanton\Desktop\drip logo.svg">
  <defs
     id="defs4" />
  <sodipodi:namedview
     id="base"
     pagecolor="#ffffff"
     bordercolor="#666666"
     borderopacity="1.0"
     inkscape:pageopacity="0.0"
     inkscape:pageshadow="2"
     inkscape:zoom="1"
     inkscape:cx="-133.86467"
     inkscape:cy="-284.25404"
     inkscape:document-units="px"
     inkscape:current-layer="svg2"
     showgrid="false"
     inkscape:window-width="2560"
     inkscape:window-height="1378"
     inkscape:window-x="1912"
     inkscape:window-y="-8"
     inkscape:window-maximized="1"
     fit-margin-top="0"
     fit-margin-left="0"
     fit-margin-right="0"
     fit-margin-bottom="0" />
  <metadata
     id="metadata7">
    <rdf:RDF>
      <cc:Work
         rdf:about="">
        <dc:format>image/svg+xml</dc:format>
        <dc:type
           rdf:resource="http://purl.org/dc/dcmitype/StillImage" />
        <dc:title></dc:title>
      </cc:Work>
    </rdf:RDF>
  </metadata>
  <g
     inkscape:groupmode="layer"
     id="layer2"
     inkscape:label="Layer"
     transform="translate(-72.225902,-13.147193)" />
  <g
     inkscape:label="Layer 1"
     inkscape:groupmode="layer"
     id="layer1"
     transform="translate(-72.225902,-965.50937)">
    <g
       style="font-size:48px;font-style:normal;font-variant:normal;font-weight:normal;font-stretch:normal;line-height:125%;letter-spacing:0px;word-spacing:0px;fill:#000000;fill-opacity:1;stroke:none;font-family:Ubuntu;-inkscape-font-specification:Ubuntu"
       id="text2993">
      <path
         d="m 181.67236,1016.2452 c -0.54397,-1.4405 -1.05593,-2.8565 -1.53589,-4.2481 -0.48,-1.3916 -0.97634,-2.8076 -1.48901,-4.248 l -15.07178,0 -3.02343,8.4961 -4.84864,0 c 1.28028,-3.5195 2.48047,-6.7754 3.60059,-9.7676 1.12011,-2.9922 2.21606,-5.8323 3.28784,-8.52026 1.07177,-2.68797 2.13573,-5.25608 3.1919,-7.70435 1.05614,-2.44821 2.1599,-4.87204 3.31127,-7.27148 l 4.27295,0 c 1.15135,2.39944 2.25511,4.82327 3.31128,7.27148 1.05613,2.44827 2.12034,5.01638 3.19263,7.70435 1.07224,2.68796 2.16819,5.52806 3.28784,8.52026 1.1196,2.9922 2.31955,6.2481 3.59986,9.7676 z m -4.36816,-12.3355 c -1.02444,-2.7841 -2.04055,-5.48018 -3.04834,-8.08811 -1.00783,-2.60788 -2.05568,-5.11203 -3.14356,-7.51245 -1.12013,2.40042 -2.18434,4.90457 -3.19262,7.51245 -1.00831,2.60793 -2.00807,5.30401 -2.99927,8.08811 z"
         style="font-family:Ubuntu;-inkscape-font-specification:Ubuntu"
         id="path2999"
         inkscape:connector-curvature="0" />
      <path
         d="m 229.60352,999.5899 c -4e-5,2.8799 -0.44803,5.3838 -1.344,7.5117 -0.89602,2.128 -2.15994,3.888 -3.79175,5.2801 -1.63186,1.392 -3.58376,2.4321 -5.85571,3.1201 -2.27199,0.688 -4.76833,1.032 -7.48901,1.032 -1.34376,0 -2.8235,-0.056 -4.43921,-0.1685 -1.61573,-0.1123 -3.07984,-0.3281 -4.39234,-0.6475 l 0,-32.25729 c 1.3125,-0.3193 2.77661,-0.53512 4.39234,-0.64746 1.61571,-0.11227 3.09545,-0.16842 4.43921,-0.16846 2.72068,4e-5 5.21702,0.34403 7.48901,1.03198 2.27195,0.68802 4.22385,1.72806 5.85571,3.12012 1.63181,1.39212 2.89573,3.15213 3.79175,5.28003 0.89597,2.12795 1.34396,4.63234 1.344,7.51318 z m -18.09522,12.8628 c 4.41502,0 7.71067,-1.1279 9.88696,-3.3838 2.17625,-2.2558 3.26438,-5.4155 3.26441,-9.479 -3e-5,-4.06443 -1.08816,-7.22458 -3.26441,-9.48046 -2.17629,-2.25583 -5.47194,-3.38376 -9.88696,-3.38379 -1.31251,3e-5 -2.32887,0.0159 -3.04907,0.0476 -0.72023,0.0318 -1.22389,0.0638 -1.51099,0.096 l 0,25.43985 c 0.2871,0.032 0.79076,0.064 1.51099,0.096 0.7202,0.032 1.73656,0.048 3.04907,0.048 z"
         style="font-family:Ubuntu;-inkscape-font-specification:Ubuntu"
         id="path3001"
         inkscape:connector-curvature="0" />
      <path
         d="m 245.43848,990.7569 c 0.38377,2e-5 0.82371,0.024 1.31982,0.0718 0.49608,0.0479 0.98412,0.11185 1.46411,0.1919 0.47997,0.0801 0.91991,0.16018 1.31983,0.24023 0.39988,0.0801 0.69602,0.15237 0.88842,0.2168 l -0.76904,3.8877 c -0.35158,-0.12791 -0.93532,-0.28001 -1.75122,-0.4563 -0.81593,-0.17625 -1.86403,-0.26439 -3.14429,-0.26441 -0.83204,2e-5 -1.65601,0.0882 -2.47192,0.26441 -0.81593,0.17629 -1.35182,0.29616 -1.60767,0.35962 l 0,20.97655 -4.46484,0 0,-23.90331 c 1.05664,-0.38474 2.36889,-0.74509 3.93677,-1.08106 1.56786,-0.33591 3.32787,-0.50388 5.28003,-0.5039 z"
         style="font-family:Ubuntu;-inkscape-font-specification:Ubuntu"
         id="path3003"
         inkscape:connector-curvature="0" />
      <path
         d="m 259.24902,1016.2452 -4.46484,0 0,-24.95949 4.46484,0 z m -2.25586,-29.47268 c -0.79981,3e-5 -1.47974,-0.26388 -2.03979,-0.79175 -0.56006,-0.5278 -0.84009,-1.23947 -0.84009,-2.13501 0,-0.89645 0.28003,-1.6086 0.84009,-2.13647 0.56005,-0.5278 1.23998,-0.79171 2.03979,-0.79175 0.7998,4e-5 1.47973,0.26395 2.0398,0.79175 0.56005,0.52787 0.84008,1.24002 0.84009,2.13647 -10e-6,0.89554 -0.28004,1.60721 -0.84009,2.13501 -0.56007,0.52787 -1.24,0.79178 -2.0398,0.79175 z"
         style="font-family:Ubuntu;-inkscape-font-specification:Ubuntu"
         id="path3005"
         inkscape:connector-curvature="0" />
      <path
         d="m 284.30078,1003.813 c -2e-5,-2.912 -0.71999,-5.15203 -2.15991,-6.71992 -1.43996,-1.56785 -3.36012,-2.35179 -5.7605,-2.35181 -1.34376,2e-5 -2.39161,0.0481 -3.14355,0.14429 -0.75197,0.0962 -1.35206,0.20827 -1.8003,0.33618 l 0,15.74416 c 0.54394,0.4473 1.32787,0.8789 2.35181,1.2949 1.02391,0.416 2.14379,0.624 3.35962,0.624 1.28026,0 2.37645,-0.2319 3.28857,-0.6958 0.91209,-0.4638 1.65599,-1.1037 2.23169,-1.9197 0.57567,-0.8159 0.99168,-1.7758 1.24805,-2.8798 0.25633,-1.104 0.3845,-2.2962 0.38452,-3.5765 z m 4.65527,0 c -2e-5,1.8878 -0.24807,3.6316 -0.74414,5.2317 -0.49611,1.6001 -1.22414,2.9761 -2.18408,4.128 -0.95998,1.1518 -2.13601,2.0478 -3.52807,2.688 -1.39211,0.6401 -2.98415,0.9602 -4.77613,0.9602 -1.43946,0 -2.71119,-0.1919 -3.81518,-0.5757 -1.10402,-0.3838 -1.92799,-0.752 -2.47193,-1.1045 l 0,9.9844 -4.46484,0 0,-33.07182 c 1.05664,-0.25583 2.37695,-0.53586 3.96094,-0.84008 1.58397,-0.30418 3.416,-0.45628 5.49609,-0.4563 1.91991,2e-5 3.64793,0.30398 5.18408,0.91186 1.53612,0.60794 2.84813,1.47195 3.93604,2.59204 1.08787,1.12014 1.92771,2.4883 2.51953,4.1045 0.59177,1.61622 0.88767,3.4321 0.88769,5.4477 z"
         style="font-family:Ubuntu;-inkscape-font-specification:Ubuntu"
         id="path3007"
         inkscape:connector-curvature="0" />
      <path
         d="m 328.37939,1003.7647 c -2e-5,1.9844 -0.28811,3.7766 -0.86425,5.3767 -0.5762,1.6001 -1.3843,2.9761 -2.42432,4.1279 -1.04006,1.1519 -2.28005,2.0398 -3.71997,2.6639 -1.43996,0.624 -3.00758,0.936 -4.70288,0.936 -1.6963,0 -3.26442,-0.312 -4.70435,-0.936 -1.43995,-0.6241 -2.67994,-1.512 -3.71997,-2.6639 -1.04004,-1.1518 -1.84815,-2.5278 -2.42431,-4.1279 -0.57618,-1.6001 -0.86426,-3.3923 -0.86426,-5.3767 0,-1.9521 0.28808,-3.7361 0.86426,-5.3518 0.57616,-1.6157 1.38427,-2.99949 2.42431,-4.15136 1.04003,-1.15184 2.28002,-2.03978 3.71997,-2.66382 1.43993,-0.624 3.00805,-0.93601 4.70435,-0.93604 1.6953,3e-5 3.26292,0.31204 4.70288,0.93604 1.43992,0.62404 2.67991,1.51198 3.71997,2.66382 1.04002,1.15187 1.84812,2.53566 2.42432,4.15136 0.57614,1.6157 0.86423,3.3997 0.86425,5.3518 z m -4.65673,0 c -2e-5,-2.8154 -0.63186,-5.04709 -1.89551,-6.69506 -1.26369,-1.64793 -2.98342,-2.4719 -5.15918,-2.47192 -2.17677,2e-5 -3.89698,0.82399 -5.16065,2.47192 -1.26368,1.64797 -1.89551,3.87966 -1.8955,6.69506 -1e-5,2.8164 0.63182,5.0486 1.8955,6.6965 1.26367,1.648 2.98388,2.472 5.16065,2.472 2.17576,0 3.89549,-0.824 5.15918,-2.472 1.26365,-1.6479 1.89549,-3.8801 1.89551,-6.6965 z"
         style="font-family:Ubuntu;-inkscape-font-specification:Ubuntu"
         id="path3009"
         inkscape:connector-curvature="0" />
      <path
         d="m 344.40332,978.99713 c 1.31249,4e-5 2.44066,0.096 3.38452,0.28784 0.94383,0.19193 1.60765,0.36796 1.99146,0.52808 l -0.81592,3.84082 c -0.38381,-0.19235 -0.92775,-0.37668 -1.63184,-0.55298 -0.70411,-0.17624 -1.56788,-0.26437 -2.59131,-0.2644 -2.08009,3e-5 -3.53614,0.56814 -4.36816,1.70434 -0.83204,1.13626 -1.24805,2.66434 -1.24805,4.58423 l 0,2.16065 9.59912,0 0,3.74414 -9.59912,0 0,21.21535 -4.46484,0 0,-27.21535 c 0,-3.20017 0.78417,-5.67233 2.35254,-7.41651 1.56835,-1.7441 4.03222,-2.61617 7.3916,-2.61621 z"
         style="font-family:Ubuntu;-inkscape-font-specification:Ubuntu"
         id="path3011"
         inkscape:connector-curvature="0" />
      <path
         d="m 380.55713,1005.5416 c -2e-5,1.5996 -0.16799,3.0874 -0.50391,4.4633 -0.33595,1.376 -0.92799,2.584 -1.77612,3.6241 -0.84816,1.04 -1.98415,1.8562 -3.40796,2.4485 -1.42384,0.5922 -3.20802,0.8884 -5.35254,0.8884 -1.0879,0 -2.0879,-0.088 -3,-0.2644 -0.91211,-0.1763 -1.73609,-0.4004 -2.47192,-0.6724 -0.73584,-0.272 -1.37574,-0.56 -1.91968,-0.8642 -0.54395,-0.3042 -0.97607,-0.5999 -1.29639,-0.887 l 1.82373,-3.6973 c 0.67188,0.4805 1.54395,0.9847 2.61621,1.5125 1.07226,0.5278 2.4082,0.7917 4.00782,0.7917 2.30467,0 3.98485,-0.584 5.04052,-1.7519 1.05565,-1.168 1.58349,-3.1758 1.5835,-6.0235 l 0,-22.12789 4.65674,0 z"
         style="font-family:Ubuntu;-inkscape-font-specification:Ubuntu"
         id="path3013"
         inkscape:connector-curvature="0" />
      <path
         d="m 396.7334,1013.0298 c 1.05565,0 1.99144,-0.024 2.80737,-0.072 0.8159,-0.048 1.49583,-0.1364 2.0398,-0.2644 l 0,-7.4399 c -0.32033,-0.1602 -0.84035,-0.2961 -1.56006,-0.408 -0.71974,-0.1118 -1.59181,-0.1677 -2.61621,-0.1677 -0.67189,0 -1.3838,0.048 -2.13575,0.1443 -0.75196,0.096 -1.43995,0.2961 -2.06396,0.5998 -0.62403,0.3038 -1.14405,0.7195 -1.56006,1.2474 -0.41602,0.5278 -0.62403,1.2238 -0.62402,2.0881 -10e-6,1.6006 0.51195,2.7129 1.53589,3.3369 1.02391,0.624 2.41625,0.936 4.177,0.936 z m -0.38526,-22.36812 c 1.79198,3e-5 3.30419,0.23196 4.53663,0.6958 1.2324,0.46389 2.22459,1.1199 2.97656,1.96802 0.75193,0.84817 1.28782,1.85622 1.60766,3.02417 0.31981,1.16799 0.47972,2.45558 0.47974,3.86283 l 0,15.6005 c -0.38381,0.065 -0.9197,0.1526 -1.60767,0.2645 -0.688,0.1118 -1.46413,0.2158 -2.32836,0.312 -0.86428,0.096 -1.80031,0.184 -2.80811,0.2636 -1.00783,0.08 -2.00783,0.1194 -3,0.1194 -1.40821,0 -2.70411,-0.1438 -3.8877,-0.4314 -1.1836,-0.2876 -2.20752,-0.7434 -3.07177,-1.3674 -0.86426,-0.624 -1.53638,-1.448 -2.01636,-2.4719 -0.47998,-1.024 -0.71997,-2.2561 -0.71997,-3.6966 0,-1.3759 0.28003,-2.56 0.84009,-3.5522 0.56005,-0.9922 1.32006,-1.7922 2.28003,-2.4002 0.95995,-0.6079 2.07982,-1.0558 3.35962,-1.3439 1.27977,-0.2881 2.62376,-0.4322 4.03198,-0.4322 0.44823,0 0.91234,0.024 1.39233,0.072 0.47997,0.048 0.93602,0.1124 1.36817,0.1919 0.43211,0.08 0.80809,0.1517 1.12793,0.2161 0.3198,0.065 0.54368,0.1123 0.67163,0.1435 l 0,-1.248 c -2e-5,-0.73534 -0.0801,-1.46312 -0.24024,-2.18335 -0.16017,-0.7202 -0.44801,-1.36033 -0.86352,-1.92041 -0.41555,-0.56004 -0.98342,-1.00804 -1.70362,-1.344 -0.72023,-0.33591 -1.6565,-0.50388 -2.80883,-0.5039 -1.47169,2e-5 -2.75953,0.10402 -3.86353,0.31201 -1.10401,0.20803 -1.92798,0.42385 -2.47192,0.64746 l -0.52881,-3.6958 c 0.57616,-0.25584 1.53637,-0.50364 2.88061,-0.74341 1.34423,-0.23972 2.80004,-0.35959 4.36743,-0.35962 z"
         style="font-family:Ubuntu;-inkscape-font-specification:Ubuntu"
         id="path3015"
         inkscape:connector-curvature="0" />
      <path
         d="m 432.80371,991.28571 c -1.24807,4.67189 -2.71193,9.15189 -4.3916,13.43989 -1.67971,4.2881 -3.30373,8.128 -4.87207,11.5196 l -4.03125,0 c -1.56837,-3.3916 -3.19263,-7.2315 -4.8728,-11.5196 -1.68018,-4.288 -3.14429,-8.768 -4.39234,-13.43989 l 4.8003,0 c 0.38378,1.5674 0.83983,3.23928 1.36816,5.01562 0.52831,1.77639 1.08837,3.53639 1.68018,5.28007 0.59178,1.7436 1.19164,3.4316 1.79956,5.0639 0.60789,1.6324 1.18382,3.0882 1.72778,4.3675 0.54393,-1.2793 1.1201,-2.7351 1.72851,-4.3675 0.60839,-1.6323 1.20849,-3.3203 1.8003,-5.0639 0.59178,-1.74368 1.15159,-3.50368 1.67944,-5.28007 0.52782,-1.77634 0.98411,-3.44822 1.3689,-5.01562 z"
         style="font-family:Ubuntu;-inkscape-font-specification:Ubuntu"
         id="path3017"
         inkscape:connector-curvature="0" />
      <path
         d="m 445.8584,1013.0298 c 1.05565,0 1.99144,-0.024 2.80737,-0.072 0.8159,-0.048 1.49583,-0.1364 2.0398,-0.2644 l 0,-7.4399 c -0.32033,-0.1602 -0.84035,-0.2961 -1.56006,-0.408 -0.71974,-0.1118 -1.59181,-0.1677 -2.61621,-0.1677 -0.67189,0 -1.3838,0.048 -2.13575,0.1443 -0.75196,0.096 -1.43995,0.2961 -2.06396,0.5998 -0.62403,0.3038 -1.14405,0.7195 -1.56006,1.2474 -0.41602,0.5278 -0.62403,1.2238 -0.62402,2.0881 -10e-6,1.6006 0.51195,2.7129 1.53589,3.3369 1.02391,0.624 2.41625,0.936 4.177,0.936 z m -0.38526,-22.36812 c 1.79198,3e-5 3.30419,0.23196 4.53663,0.6958 1.2324,0.46389 2.22459,1.1199 2.97656,1.96802 0.75193,0.84817 1.28782,1.85622 1.60766,3.02417 0.31981,1.16799 0.47972,2.45558 0.47974,3.86283 l 0,15.6005 c -0.38381,0.065 -0.9197,0.1526 -1.60767,0.2645 -0.688,0.1118 -1.46413,0.2158 -2.32836,0.312 -0.86428,0.096 -1.80031,0.184 -2.80811,0.2636 -1.00783,0.08 -2.00783,0.1194 -3,0.1194 -1.40821,0 -2.70411,-0.1438 -3.8877,-0.4314 -1.1836,-0.2876 -2.20752,-0.7434 -3.07177,-1.3674 -0.86426,-0.624 -1.53638,-1.448 -2.01636,-2.4719 -0.47998,-1.024 -0.71997,-2.2561 -0.71997,-3.6966 0,-1.3759 0.28003,-2.56 0.84009,-3.5522 0.56005,-0.9922 1.32006,-1.7922 2.28003,-2.4002 0.95995,-0.6079 2.07982,-1.0558 3.35962,-1.3439 1.27977,-0.2881 2.62376,-0.4322 4.03198,-0.4322 0.44823,0 0.91234,0.024 1.39233,0.072 0.47997,0.048 0.93602,0.1124 1.36817,0.1919 0.43211,0.08 0.80809,0.1517 1.12793,0.2161 0.3198,0.065 0.54368,0.1123 0.67163,0.1435 l 0,-1.248 c -2e-5,-0.73534 -0.0801,-1.46312 -0.24024,-2.18335 -0.16017,-0.7202 -0.44801,-1.36033 -0.86352,-1.92041 -0.41555,-0.56004 -0.98342,-1.00804 -1.70362,-1.344 -0.72023,-0.33591 -1.6565,-0.50388 -2.80883,-0.5039 -1.47169,2e-5 -2.75953,0.10402 -3.86353,0.31201 -1.10401,0.20803 -1.92798,0.42385 -2.47192,0.64746 l -0.52881,-3.6958 c 0.57616,-0.25584 1.53637,-0.50364 2.88061,-0.74341 1.34423,-0.23972 2.80004,-0.35959 4.36743,-0.35962 z"
         style="font-family:Ubuntu;-inkscape-font-specification:Ubuntu"
         id="path3019"
         inkscape:connector-curvature="0" />
      <path
         d="m 470.45752,1012.9332 c 4.86326,0 7.2949,-1.6641 7.29492,-4.9922 -2e-5,-1.0234 -0.21584,-1.8953 -0.64746,-2.6155 -0.43166,-0.7202 -1.01564,-1.3442 -1.75195,-1.8721 -0.73635,-0.5278 -1.57643,-0.9838 -2.52027,-1.3681 -0.94386,-0.3843 -1.94361,-0.7683 -2.99926,-1.1521 -1.21583,-0.416 -2.36793,-0.888 -3.4563,-1.4158 -1.08839,-0.52782 -2.03248,-1.15184 -2.83228,-1.87208 -0.79981,-0.72019 -1.43164,-1.57615 -1.89551,-2.56787 -0.46387,-0.99167 -0.6958,-2.19162 -0.6958,-3.59985 0,-2.91208 0.99194,-5.1843 2.97583,-6.81665 1.98388,-1.63229 4.71996,-2.44845 8.20826,-2.44849 2.0156,4e-5 3.84739,0.2161 5.49536,0.6482 1.64793,0.43216 2.85569,0.90457 3.62329,1.41723 l -1.48682,3.79102 c -0.67189,-0.41599 -1.67189,-0.82395 -3,-1.22388 -1.32814,-0.39987 -2.87208,-0.59982 -4.63183,-0.59985 -0.8965,3e-5 -1.72878,0.096 -2.49683,0.28784 -0.76808,0.19192 -1.43995,0.48001 -2.01563,0.86426 -0.57569,0.3843 -1.03174,0.87234 -1.36816,1.46411 -0.33643,0.59182 -0.50465,1.28762 -0.50464,2.0874 -10e-6,0.89651 0.17602,1.64871 0.52808,2.25659 0.35204,0.60794 0.84813,1.14382 1.48828,1.60767 0.64013,0.46389 1.38427,0.88796 2.23242,1.27222 0.84813,0.38429 1.78392,0.76833 2.80737,1.1521 1.44042,0.57619 2.76048,1.15211 3.96021,1.72778 1.19969,0.5757 2.23972,1.26365 3.12012,2.06395 0.88034,0.8003 1.56052,1.7525 2.04052,2.8565 0.47996,1.104 0.71995,2.4397 0.71997,4.007 -2e-5,2.9122 -1.06398,5.1524 -3.19189,6.7207 -2.12795,1.5684 -5.12795,2.3526 -9,2.3526 -1.31251,0 -2.52076,-0.088 -3.62476,-0.2644 -1.10401,-0.1763 -2.08789,-0.3843 -2.95166,-0.624 -0.86377,-0.2398 -1.60767,-0.4959 -2.23169,-0.7684 -0.62402,-0.2724 -1.1123,-0.5044 -1.46484,-0.6958 l 1.39307,-3.8408 c 0.73534,0.416 1.85497,0.8802 3.35888,1.3924 1.5039,0.5122 3.34423,0.7683 5.521,0.7683 z"
         style="font-family:Ubuntu;-inkscape-font-specification:Ubuntu"
         id="path3021"
         inkscape:connector-curvature="0" />
      <path
         d="m 498.78906,1016.8209 c -2.01564,0 -3.78346,-0.3201 -5.30346,-0.9602 -1.52003,-0.6402 -2.80006,-1.5362 -3.84009,-2.688 -1.04005,-1.1519 -1.81617,-2.5198 -2.32837,-4.1038 -0.51221,-1.584 -0.76831,-3.3359 -0.76831,-5.2559 0,-1.9199 0.28002,-3.6799 0.84009,-5.27998 0.56005,-1.60008 1.35204,-2.98411 2.37597,-4.1521 1.02392,-1.16795 2.28002,-2.07981 3.76831,-2.7356 1.48827,-0.65573 3.14403,-0.98361 4.96729,-0.98364 1.1201,3e-5 2.24022,0.096 3.36035,0.28784 1.1201,0.19192 2.19236,0.49588 3.2168,0.91187 l -1.00928,3.79248 c -0.67189,-0.32029 -1.44777,-0.5764 -2.32764,-0.76831 -0.8799,-0.19187 -1.81593,-0.28782 -2.8081,-0.28784 -2.49611,2e-5 -4.40797,0.78395 -5.7356,2.3518 -1.32764,1.56789 -1.99146,3.85578 -1.99145,6.86348 -1e-5,1.3438 0.15184,2.5757 0.45556,3.6959 0.30371,1.1201 0.78369,2.0803 1.43994,2.8806 0.65624,0.8003 1.49633,1.4162 2.52027,1.8479 1.02391,0.4316 2.27171,0.6474 3.74341,0.6474 1.18455,0 2.25681,-0.112 3.21679,-0.3362 0.95994,-0.2241 1.7119,-0.4641 2.25586,-0.7199 l 0.62403,3.7441 c -0.25588,0.1602 -0.6238,0.3123 -1.10376,0.4563 -0.48,0.1441 -1.02419,0.272 -1.63257,0.3838 -0.60842,0.1118 -1.25661,0.2078 -1.94458,0.2878 -0.68801,0.08 -1.35182,0.1202 -1.99146,0.1202 z"
         style="font-family:Ubuntu;-inkscape-font-specification:Ubuntu"
         id="path3023"
         inkscape:connector-curvature="0" />
      <path
         d="m 519.46973,990.7569 c 0.38377,2e-5 0.82371,0.024 1.31982,0.0718 0.49608,0.0479 0.98412,0.11185 1.46411,0.1919 0.47997,0.0801 0.91991,0.16018 1.31983,0.24023 0.39988,0.0801 0.69602,0.15237 0.88842,0.2168 l -0.76904,3.8877 c -0.35158,-0.12791 -0.93532,-0.28001 -1.75122,-0.4563 -0.81593,-0.17625 -1.86403,-0.26439 -3.14429,-0.26441 -0.83204,2e-5 -1.65601,0.0882 -2.47192,0.26441 -0.81593,0.17629 -1.35182,0.29616 -1.60767,0.35962 l 0,20.97655 -4.46484,0 0,-23.90331 c 1.05664,-0.38474 2.36889,-0.74509 3.93677,-1.08106 1.56786,-0.33591 3.32787,-0.50388 5.28003,-0.5039 z"
         style="font-family:Ubuntu;-inkscape-font-specification:Ubuntu"
         id="path3025"
         inkscape:connector-curvature="0" />
      <path
         d="m 533.28027,1016.2452 -4.46484,0 0,-24.95949 4.46484,0 z m -2.25586,-29.47268 c -0.79981,3e-5 -1.47974,-0.26388 -2.03979,-0.79175 -0.56006,-0.5278 -0.84009,-1.23947 -0.84009,-2.13501 0,-0.89645 0.28003,-1.6086 0.84009,-2.13647 0.56005,-0.5278 1.23998,-0.79171 2.03979,-0.79175 0.7998,4e-5 1.47973,0.26395 2.0398,0.79175 0.56005,0.52787 0.84008,1.24002 0.84009,2.13647 -1e-5,0.89554 -0.28004,1.60721 -0.84009,2.13501 -0.56007,0.52787 -1.24,0.79178 -2.0398,0.79175 z"
         style="font-family:Ubuntu;-inkscape-font-specification:Ubuntu"
         id="path3027"
         inkscape:connector-curvature="0" />
      <path
         d="m 558.33203,1003.813 c -2e-5,-2.912 -0.71999,-5.15203 -2.15991,-6.71992 -1.43996,-1.56785 -3.36012,-2.35179 -5.7605,-2.35181 -1.34376,2e-5 -2.39161,0.0481 -3.14355,0.14429 -0.75197,0.0962 -1.35206,0.20827 -1.8003,0.33618 l 0,15.74416 c 0.54394,0.4473 1.32787,0.8789 2.35181,1.2949 1.02391,0.416 2.14379,0.624 3.35962,0.624 1.28026,0 2.37645,-0.2319 3.28857,-0.6958 0.91209,-0.4638 1.65599,-1.1037 2.23169,-1.9197 0.57567,-0.8159 0.99168,-1.7758 1.24805,-2.8798 0.25633,-1.104 0.3845,-2.2962 0.38452,-3.5765 z m 4.65527,0 c -2e-5,1.8878 -0.24807,3.6316 -0.74414,5.2317 -0.49611,1.6001 -1.22414,2.9761 -2.18408,4.128 -0.95998,1.1518 -2.13601,2.0478 -3.52807,2.688 -1.39211,0.6401 -2.98415,0.9602 -4.77613,0.9602 -1.43946,0 -2.71119,-0.1919 -3.81518,-0.5757 -1.10402,-0.3838 -1.92799,-0.752 -2.47193,-1.1045 l 0,9.9844 -4.46484,0 0,-33.07182 c 1.05664,-0.25583 2.37695,-0.53586 3.96094,-0.84008 1.58397,-0.30418 3.416,-0.45628 5.49609,-0.4563 1.91991,2e-5 3.64793,0.30398 5.18408,0.91186 1.53612,0.60794 2.84813,1.47195 3.93604,2.59204 1.08787,1.12014 1.92771,2.4883 2.51953,4.1045 0.59177,1.61622 0.88767,3.4321 0.88769,5.4477 z"
         style="font-family:Ubuntu;-inkscape-font-specification:Ubuntu"
         id="path3029"
         inkscape:connector-curvature="0" />
      <path
         d="m 573.4917,991.28571 9.45703,0 0,3.74414 -9.45703,0 0,11.51955 c -1e-5,1.248 0.0959,2.28 0.28784,3.0959 0.19189,0.8159 0.47997,1.4558 0.86426,1.9197 0.38427,0.4639 0.86449,0.7918 1.44067,0.9836 0.57616,0.1919 1.24804,0.2879 2.01563,0.2879 1.34373,0 2.42357,-0.1519 3.2395,-0.4556 0.8159,-0.3037 1.38402,-0.5195 1.70435,-0.6474 l 0.86425,3.6958 c -0.44826,0.2236 -1.23244,0.5034 -2.35254,0.8393 -1.12013,0.336 -2.39991,0.5039 -3.83935,0.5039 -1.6963,0 -3.09645,-0.2158 -4.20044,-0.6474 -1.10401,-0.4317 -1.99195,-1.0796 -2.66382,-1.9439 -0.67188,-0.8642 -1.1438,-1.9282 -1.41577,-3.1919 -0.27198,-1.2636 -0.40796,-2.7275 -0.40796,-4.3916 l 0,-22.27293 4.46338,-0.76758 z"
         style="font-family:Ubuntu;-inkscape-font-specification:Ubuntu"
         id="path3031"
         inkscape:connector-curvature="0" />
    </g>
    <path
       sodipodi:type="arc"
       style="fill:#272905;fill-opacity:1"
       id="path3765"
       sodipodi:cx="27.274118"
       sodipodi:cy="22.218254"
       sodipodi:rx="78.791901"
       sodipodi:ry="78.791901"
       d="m 106.06602,22.218254 c 0,43.515565 -35.276336,78.791896 -78.791902,78.791896 -43.515565,0 -78.7919,-35.276331 -78.7919,-78.791896 0,-43.515565 35.276335,-78.791901 78.7919,-78.791901 43.515566,0 78.791902,35.276336 78.791902,78.791901 z"
       transform="matrix(0.4294872,0,0,0.4294872,94.35213,989.80703)" />
    <path
       style="fill:#fefdf9;fill-opacity:1;stroke:none"
       d="m 106.17409,979.63119 c -1.39304,11.50847 -21.744332,31.80971 0,35.35531 19.08446,-3.995 1.13336,-23.79062 0,-35.35531 z"
       id="path3771"
       inkscape:connector-curvature="0"
       sodipodi:nodetypes="ccc" />
  </g>
</svg>
