<?xml version="1.0" encoding="utf-8"?>
<!-- Generator: Adobe Illustrator 25.0.0, SVG Export Plug-In . SVG Version: 6.00 Build 0)  -->
<svg version="1.1" id="Layer_1" xmlns="http://www.w3.org/2000/svg" xmlns:xlink="http://www.w3.org/1999/xlink" x="0px" y="0px"
	 viewBox="0 0 371 66" style="enable-background:new 0 0 371 66;" xml:space="preserve">
<style type="text/css">
	.st0{fill:#000551;}
	.st1{fill:none;stroke:#3DC895;stroke-width:1.5;stroke-miterlimit:10;}
</style>
<path class="st0" d="M83.3,28.1v4.1h-4.5v13.7h-4.6V32.2h-3.9v-4.1h3.9v-5.9h4.6v5.9H83.3z"/>
<path class="st0" d="M99.4,39.7l3.5,1.3c-1.3,3.4-4.2,5.4-8.3,5.4c-2.6,0.1-5-0.9-6.9-2.6c-1.8-1.8-2.8-4.3-2.7-6.8
	c-0.1-2.5,0.8-4.9,2.5-6.7c3.7-3.4,9.3-3.5,13.1-0.3c1.7,1.6,2.5,3.8,2.4,6.1c0,0.7-0.1,1.3-0.3,2H89.6c0.4,2.9,2.3,4.6,5.1,4.6
	C96.8,42.7,98.6,41.6,99.4,39.7z M89.7,35h8.7c-0.1-2.2-2-3.8-4.2-3.7c0,0-0.1,0-0.1,0C91.6,31.2,90.2,32.5,89.7,35z"/>
<path class="st0" d="M123.8,40.8c-1.3,3.5-4.6,5.5-8.6,5.5c-2.6,0.1-5.1-0.9-6.9-2.6c-3.6-3.7-3.6-9.7,0-13.4
	c1.8-1.8,4.3-2.7,6.8-2.7c4,0,7.2,2,8.4,5.5l-3.9,1.5c-0.7-1.9-2.5-3.1-4.4-3c-1.4,0-2.7,0.5-3.7,1.6c-1,1-1.5,2.4-1.5,3.8
	c-0.1,2.8,2,5.2,4.8,5.4c0.1,0,0.3,0,0.4,0c2,0,3.8-1.2,4.6-3L123.8,40.8z"/>
<path class="st0" d="M144.8,36v9.9H140v-9.1c0-3.3-1.5-5-4-5s-4.2,2.1-4.2,5.2v8.9H127V19.2h4.7v11.2c1.2-1.9,3.4-2.9,5.6-2.8
	C141.8,27.6,144.8,30.8,144.8,36z"/>
<path class="st0" d="M174.1,30.2c3.4,3.9,3.4,9.6,0,13.5c-1.7,1.8-4.1,2.7-6.5,2.6c-2.6,0.1-5-1-6.6-3V54h-4.7V28.1h4.3v3.1
	c1.5-2.4,4.2-3.8,7-3.6C170,27.5,172.4,28.5,174.1,30.2z M171.9,37c0-1.5-0.5-2.9-1.6-3.9c-2.2-2.1-5.7-2.1-7.8,0
	c-1,1-1.6,2.5-1.5,3.9c-0.1,1.5,0.5,2.9,1.6,4c2.2,2.1,5.7,2.1,7.8-0.1C171.4,39.8,172,38.4,171.9,37L171.9,37z"/>
<path class="st0" d="M192.5,28l-1,4.7c-0.5-0.2-1-0.3-1.6-0.3c-2.9,0-4.9,2.4-4.9,6.6v6.9h-4.8V28.1h4.4v4c1.1-2.9,3.3-4.5,6-4.5
	C191.3,27.6,191.9,27.7,192.5,28z"/>
<path class="st0" d="M202.3,46.4c-2.6,0.1-5.1-0.9-6.9-2.6c-3.7-3.7-3.7-9.7,0-13.5c4-3.5,9.9-3.5,13.8,0c3.7,3.7,3.7,9.7,0,13.5
	C207.3,45.5,204.8,46.4,202.3,46.4z M202.3,42.4c1.4,0,2.7-0.5,3.7-1.5c1.9-2.2,1.9-5.5,0-7.7c-2-2.1-5.4-2.1-7.4,0c0,0,0,0,0,0
	c-1.9,2.2-1.9,5.4,0,7.6C199.5,41.8,200.9,42.4,202.3,42.4z"/>
<path class="st0" d="M230,19.2h4.7v26.6h-4.3v-3.1c-1.5,2.4-4.2,3.8-7,3.6c-2.5,0.1-4.9-0.8-6.6-2.6c-3.3-3.9-3.3-9.6,0-13.5
	c1.7-1.8,4.1-2.7,6.6-2.6c2.6-0.1,5,1,6.6,3V19.2z M228.4,41c1-1.1,1.6-2.5,1.5-4c0-1.5-0.5-2.9-1.5-3.9c-1-1.1-2.5-1.7-3.9-1.6
	c-1.5-0.1-3,0.5-4,1.6c-1,1.1-1.5,2.5-1.5,3.9c-0.1,2.9,2.1,5.4,5,5.5c0.2,0,0.3,0,0.5,0C225.9,42.6,227.4,42,228.4,41z"/>
<path class="st0" d="M239.2,28.1h4.7v9.5c0,2.8,1.4,4.6,3.9,4.6s3.9-1.7,3.9-4.6v-9.5h4.7v9.5c0.3,4.5-3.1,8.4-7.5,8.7
	c-0.4,0-0.7,0-1.1,0c-2.3,0.1-4.6-0.7-6.2-2.3c-1.6-1.7-2.5-4-2.4-6.4L239.2,28.1z"/>
<path class="st0" d="M277.9,40.8c-1.3,3.5-4.6,5.5-8.6,5.5c-2.6,0.1-5.1-0.9-6.9-2.6c-3.7-3.7-3.7-9.7,0-13.4
	c1.8-1.8,4.2-2.7,6.8-2.7c4,0,7.2,2,8.4,5.5l-3.9,1.5c-0.7-1.9-2.5-3.1-4.5-3c-1.4,0-2.7,0.5-3.7,1.6c-1,1-1.5,2.4-1.4,3.8
	c-0.2,2.8,2,5.2,4.8,5.4c0.1,0,0.3,0,0.4,0c2,0,3.8-1.2,4.6-3L277.9,40.8z"/>
<path class="st0" d="M292.2,28.1v4.1h-4.5v13.7h-4.6V32.2h-3.9v-4.1h3.9v-5.9h4.6v5.9H292.2z"/>
<path class="st0" d="M297.5,19.4c1.6,0,3,1.3,3,2.9s-1.3,3-2.9,3c-1.6,0-3-1.3-3-2.9c-0.1-1.6,1.1-2.9,2.7-3
	C297.4,19.4,297.4,19.4,297.5,19.4z M295.1,45.9V28.1h4.8v17.8H295.1z"/>
<path class="st0" d="M318.4,28.1h4.8L315,45.9h-4.1l-8.2-17.8h5l5.4,12.3L318.4,28.1z"/>
<path class="st0" d="M328.2,19.4c1.6,0,3,1.3,3,2.9s-1.3,3-2.9,3c-1.6,0-3-1.3-3-2.9c-0.1-1.6,1.1-2.9,2.7-3
	C328,19.4,328.1,19.4,328.2,19.4z M325.7,45.9V28.1h4.8v17.8H325.7z"/>
<path class="st0" d="M345.6,28.1v4.1h-4.5v13.7h-4.6V32.2h-3.9v-4.1h3.9v-5.9h4.6v5.9H345.6z"/>
<path class="st0" d="M363.7,28.1h5L356.6,54h-5l4-8.7l-8.1-17.2h5.2l5.4,11.9L363.7,28.1z"/>
<path class="st1" d="M6,22.4h11.1c2,0,3.6,1.6,3.6,3.6l0,0v33.9"/>
<ellipse transform="matrix(0.1602 -0.9871 0.9871 0.1602 -9.0593 58.8921)" class="st1" cx="30.1" cy="34.8" rx="27.1" ry="27.1"/>
<path class="st1" d="M34.4,22.1h-6.6c-2,0-3.6,1.6-3.6,3.6l0,0v35.5"/>
<circle class="st1" cx="35.9" cy="21.5" r="1.9"/>
<path class="st1" d="M38.2,43.9h6.6c2,0,3.6-1.6,3.6-3.6V14.6"/>
<circle class="st1" cx="36.6" cy="43.9" r="1.9"/>
<path class="st1" d="M41.7,30.2h-6.6c-2,0-3.6,1.6-3.6,3.6c0,0,0,0,0,0v27.6"/>
<circle class="st1" cx="43.2" cy="29.7" r="1.9"/>
</svg>
