<svg version="1.1" id="Layer_1" x="0" y="0" viewBox="0 0 239.8 35.9" xml:space="preserve" xmlns="http://www.w3.org/2000/svg"><style type="text/css" id="style2">.st1{fill:#fff}.st2{fill:#62ab70}</style><g id="g34" transform="translate(-12.1 -18.4)"><path id="polygon4" style="fill:#78608a" d="M66.9 18.6H55.1L36.5 54.3h11.8z"/><g id="g30"><path class="st1" d="M74.7 32.9c-.2-.5 0-.9.5-.9h3.1c.4 0 .5.2.6.4l2.9 6.7h.1l3.1-6.7c.2-.4.5-.4.9-.4h2.8c.5 0 .8.4.5.9l-6.6 13.5c-.1.2-.3.4-.6.4h-.2c-.3 0-.5-.2-.6-.4z" id="path6"/><path class="st1" d="m90.8 44.7 1-1.9c.1-.4.5-.4.8-.3 0 0 1.6.9 3.3.9.7 0 1.2-.3 1.2-.9 0-.6-.5-1-2.4-1.8-2.8-1.1-4.1-2.6-4.1-4.8 0-2.2 1.6-4.2 5.3-4.2 2.1 0 3.7.6 4.4 1.1.3.2.5.6.3 1l-.9 1.8c-.2.3-.6.4-.9.3 0 0-1.6-.8-3-.8-.9 0-1.2.4-1.2.8 0 .6.6.9 2 1.4 2.8 1.1 4.9 2.3 4.9 5.1 0 2.4-2.1 4.4-5.7 4.4-2.4 0-4-.8-4.8-1.3-.2-.2-.3-.5-.2-.8z" id="path8"/><path class="st1" d="M111.3 31.7c2.2 0 4 .9 5.3 2.6.3.3.2.8-.2 1l-1.7 1.6c-.3.3-.6.1-.9-.1-.6-.6-1.5-1.2-2.5-1.2-1.9 0-3.5 1.7-3.5 3.7 0 2.1 1.5 3.7 3.5 3.7 1.5 0 2.2-.8 2.9-1.4.3-.3.6-.3.9-.1l1.5 1.3c.4.3.5.6.3 1-1.2 1.9-3.1 3-5.7 3-4.1 0-7.6-3.2-7.6-7.6 0-4.2 3.7-7.5 7.7-7.5z" id="path10"/><path class="st1" d="M126.3 31.7c4.1 0 7.4 3.5 7.4 7.5 0 4.1-3.3 7.6-7.4 7.6-4.1 0-7.4-3.5-7.4-7.6.1-4.1 3.4-7.5 7.4-7.5zm0 11.2c1.9 0 3.5-1.7 3.5-3.7s-1.5-3.6-3.5-3.6c-1.9 0-3.5 1.6-3.5 3.6.1 2 1.6 3.7 3.5 3.7z" id="path12"/><path class="st1" d="M143 31.7c1.4 0 2.6.4 3.2.6V21.9c0-.4.3-.7.7-.7h3.1c.4 0 .7.3.7.7v23.8c0 .4-.3.7-.7.7h-1.4c-.3 0-.6-.3-.7-.7l-.4-1.1s-1.7 2.2-4.7 2.2c-3.9 0-6.9-3.4-6.9-7.6-.1-4.2 2.8-7.5 7.1-7.5zm.3 11.2c1.9 0 2.8-1.5 3-2.3v-4.2s-1-.8-2.8-.8c-2 0-3.5 1.7-3.5 3.7s1.4 3.6 3.3 3.6z" id="path14"/><path class="st1" d="M161.2 31.7c3.7 0 6.7 2.8 6.7 6.7 0 .3 0 .7-.1 1 0 .4-.4.6-.7.6H158c.1 1.5 1.4 3.1 3.5 3.1 1.1 0 2.2-.4 2.8-.9.4-.2.7-.3.9 0l1.5 1.7c.3.3.3.6 0 .9-1.2 1.1-3 2-5.4 2-4.3 0-7.4-3.4-7.4-7.6-.1-4 3-7.5 7.3-7.5zm2.5 5.7c-.1-1.3-1.3-2.4-2.6-2.4-1.4 0-2.6 1.1-2.8 2.4z" id="path16"/><path class="st2" d="M173 40.9c1.6 0 3 1.4 3 3s-1.4 3-3 3-3-1.3-3-3 1.4-3 3-3z" id="path18"/><path class="st1" d="M185.7 31.7c3.7 0 6.7 2.8 6.7 6.7 0 .3 0 .7-.1 1 0 .4-.4.6-.7.6h-9.2c.1 1.5 1.4 3.1 3.5 3.1 1.1 0 2.2-.4 2.8-.9.4-.2.7-.3.9 0l1.5 1.7c.3.3.3.6 0 .9-1.2 1.1-3 2-5.4 2-4.3 0-7.4-3.4-7.4-7.6 0-4 3.1-7.5 7.4-7.5zm2.5 5.7c-.1-1.3-1.3-2.4-2.6-2.4-1.4 0-2.6 1.1-2.8 2.4z" id="path20"/><path class="st1" d="M195.4 32.7c0-.4.3-.7.7-.7h1.3c.3 0 .5.2.6.4l.5 1.4c.6-.7 2.3-2.1 4.8-2.1 2.1 0 3.5.8 4.7 2.2.6-.6 2.5-2.2 5.1-2.2 4.6 0 6.3 3.4 6.3 7.2v6.9c0 .4-.3.7-.7.7h-2.9c-.4 0-.7-.3-.7-.7v-7.1c0-1.9-.9-3.1-2.7-3.1-2.1 0-3 1.5-3 1.5v8.7c0 .4-.3.7-.7.7H206c-.4 0-.7-.3-.7-.7v-7.1c0-1.9-.8-3.1-2.7-3.1-1.8 0-2.7 1.3-3 2.3v7.9c0 .4-.3.7-.7.7H196c-.4 0-.7-.3-.7-.7V32.7Z" id="path22"/><path class="st1" d="M228.2 37.3c1.4 0 2.6.4 2.6.4 0-1.8-.5-2.5-1.9-2.5-1.3 0-3.2.3-4 .5-.5.1-.8-.2-.8-.6l-.3-1.9c-.1-.5.2-.8.5-.9.3-.1 2.6-.7 4.9-.7 4.5 0 5.5 2.3 5.5 6.3v7.8c0 .4-.3.7-.7.7h-1.3c-.3 0-.4-.1-.6-.5l-.4-1c-.8.8-2.2 1.8-4.4 1.8-2.9 0-4.9-1.9-4.9-4.9 0-2.5 2.1-4.5 5.8-4.5zm.1 6.4c1.2 0 2.3-1 2.5-1.4v-2s-1-.4-2-.4c-1.4 0-2.3.8-2.3 1.9-.1 1.1.6 1.9 1.8 1.9z" id="path24"/><path class="st1" d="M238.5 24.4c0-1.4 1.1-2.5 2.4-2.5 1.4 0 2.5 1.1 2.5 2.5s-1.1 2.5-2.5 2.5c-1.3 0-2.4-1.1-2.4-2.5zm.3 8.3c0-.4.3-.7.7-.7h3c.4 0 .7.3.7.7v13c0 .4-.3.7-.7.7h-3c-.4 0-.7-.3-.7-.7z" id="path26"/><path class="st1" d="M247.5 21.9c0-.4.3-.7.7-.7h3c.4 0 .7.3.7.7v23.8c0 .4-.3.7-.7.7h-3c-.4 0-.7-.3-.7-.7z" id="path28"/></g><path class="st2" id="polygon32" d="M49.7 18.5H39.4l-7.6 15.1-8-15.2H12.1l13.1 25.2h11.9z"/></g></svg>